<svg width="100" height="100" viewBox="0 0 100 100" fill="none" xmlns="http://www.w3.org/2000/svg">
<path d="M84.7999 22.2002L42.9999 22.3002C42.0999 22.3002 41.1999 22.6002 40.4999 23.3002C39.7999 23.9002 39.4999 24.8002 39.4999 25.8002L39.5999 36.7002L28.6999 36.9002C27.4999 36.9002 26.3999 37.6002 25.6999 38.6002L17.8999 52.0002C17.5999 52.4002 17.1999 52.8002 16.6999 52.9002L14.5999 53.3002C12.9999 53.6002 11.8999 55.0002 11.8999 56.7002V66.9002C11.8999 67.8002 12.2999 68.7002 12.8999 69.3002C13.4999 69.9002 14.3999 70.3002 15.2999 70.3002H20.4999C20.8999 74.7002 24.5999 78.1002 28.9999 78.1002C33.4999 78.1002 37.0999 74.7002 37.4999 70.3002L62.8999 70.1002C63.1999 74.5002 66.8999 78.0002 71.4999 78.0002C76.0999 78.0002 79.7999 74.4002 80.0999 70.0002H84.5999C86.4999 70.0002 87.9999 68.5002 87.9999 66.6002L88.2999 25.8002C88.1999 23.7002 86.6999 22.2002 84.7999 22.2002ZM41.5999 24.4002C41.8999 24.1002 42.3999 23.9002 42.8999 23.9002L84.6999 23.8002C85.6999 23.8002 86.4999 24.6002 86.4999 25.6002L86.2999 58.1002L41.2999 57.9002L41.1999 38.3002L41.0999 25.8002C41.0999 25.2002 41.2999 24.8002 41.5999 24.4002ZM15.2999 68.5002C14.7999 68.5002 14.3999 68.3002 13.9999 68.0002C13.6999 67.7002 13.4999 67.2002 13.4999 66.7002V56.5002C13.4999 55.6002 14.0999 54.9002 14.8999 54.7002L16.9999 54.3002C17.9999 54.1002 18.7999 53.5002 19.2999 52.7002L27.0999 39.3002C27.3999 38.7002 27.9999 38.4002 28.6999 38.4002L39.5999 38.2002L39.6999 68.4002H37.4999C37.0999 64.1002 33.3999 60.6002 28.9999 60.6002C24.4999 60.6002 20.8999 64.0002 20.4999 68.4002H15.2999V68.5002ZM28.9999 76.2002C25.1999 76.2002 21.9999 73.1002 21.9999 69.2002C21.9999 65.3002 25.0999 62.2002 28.9999 62.2002C32.8999 62.2002 35.9999 65.3002 35.9999 69.2002C35.9999 73.1002 32.7999 76.2002 28.9999 76.2002ZM71.3999 76.2002C67.5999 76.2002 64.3999 73.1002 64.3999 69.2002C64.3999 65.3002 67.4999 62.2002 71.3999 62.2002C75.2999 62.2002 78.3999 65.3002 78.3999 69.2002C78.3999 73.1002 75.2999 76.2002 71.3999 76.2002ZM84.4999 68.1002H79.9999C79.4999 63.9002 75.8999 60.6002 71.4999 60.6002C67.0999 60.6002 63.4999 63.9002 62.9999 68.2002L41.3999 68.3002V59.3002L86.3999 59.5002V66.2002C86.2999 67.3002 85.3999 68.1002 84.4999 68.1002Z" fill="#93C93E"/>
<path d="M81.3 47L75.5 53.2C75.2 53.5 75.2 54 75.5 54.3C75.7 54.4 75.9 54.5 76.1 54.5C76.3 54.5 76.5 54.4 76.7 54.2L82.5 48C82.8 47.7 82.8 47.2 82.5 46.9C82.1 46.7 81.6 46.7 81.3 47ZM66.7 54.7C66.9 54.7 67.1 54.6 67.3 54.4L82.2 38.1C82.5 37.8 82.5 37.3 82.1 37C81.8 36.7 81.3 36.7 81 37.1L66.1 53.3C65.8 53.6 65.8 54.1 66.2 54.4C66.3 54.6 66.5 54.7 66.7 54.7Z" fill="#93C93E"/>
</svg>
