<svg width="68" height="68" viewBox="0 0 68 68" fill="none" xmlns="http://www.w3.org/2000/svg">
<path fill-rule="evenodd" clip-rule="evenodd" d="M34 0C15.2307 0 0 15.2307 0 34C0 52.7693 15.2307 68 34 68C52.7693 68 68 52.7693 68 34C68 15.2307 52.7693 0 34 0ZM34 1.41667C52.0037 1.41667 66.5833 15.9963 66.5833 34C66.5833 52.0037 52.0037 66.5833 34 66.5833C15.9963 66.5833 1.41667 52.0037 1.41667 34C1.41667 15.9963 15.9963 1.41667 34 1.41667ZM36.5262 16.7703C36.135 16.7705 35.8179 17.0875 35.8179 17.4787V18.2036C35.6134 18.2744 35.415 18.3561 35.2202 18.4499L34.7111 17.9408C34.4345 17.6642 33.9861 17.6642 33.7095 17.9408L32.207 19.4432C31.9305 19.7197 31.9305 20.1681 32.207 20.4448L32.7189 20.9567C32.6249 21.1506 32.5432 21.348 32.4727 21.5516H31.745C31.3538 21.5517 31.0367 21.8688 31.0366 22.2599V24.3849C31.0367 24.7762 31.3538 25.0933 31.745 25.0933H32.4699C32.5404 25.299 32.6218 25.4978 32.7161 25.6937L32.207 26.2028C31.9305 26.4795 31.9305 26.9278 32.207 27.2044L33.7095 28.7069C33.9861 28.9834 34.4345 28.9834 34.7111 28.7069L35.2202 28.1978C35.4149 28.2927 35.6134 28.3732 35.8179 28.444V29.1662C35.8179 29.5575 36.135 29.8745 36.5262 29.8745H38.6512C39.0424 29.8745 39.3595 29.5575 39.3595 29.1662V28.4412C39.5641 28.3704 39.7623 28.2888 39.9572 28.195L40.4691 28.7069C40.7457 28.9834 41.1941 28.9834 41.4707 28.7069L42.9731 27.2044C43.2497 26.9278 43.2497 26.4795 42.9731 26.2028L42.4613 25.6909C42.5558 25.496 42.6394 25.2981 42.7103 25.0933H43.4325C43.8236 25.0933 44.1407 24.7762 44.1408 24.3849V22.2599C44.1407 21.8688 43.8236 21.5517 43.4325 21.5516H42.7075C42.6374 21.3473 42.5577 21.1484 42.464 20.9539L42.9731 20.4448C43.2497 20.1681 43.2497 19.7197 42.9731 19.4432L41.4707 17.9408C41.1941 17.6642 40.7457 17.6642 40.4691 17.9408L39.9572 18.4526C39.7622 18.3577 39.5643 18.2746 39.3595 18.2036V17.4787C39.3595 17.0875 39.0424 16.7705 38.6512 16.7703H36.5262ZM37.2345 18.187H37.9429V18.6657C37.9423 18.9966 38.1709 19.2838 38.4935 19.3574C38.94 19.4594 39.3674 19.637 39.7552 19.8804C40.0351 20.0556 40.3989 20.0145 40.6323 19.7808L40.9699 19.4432L41.4707 19.944L41.1359 20.2788C40.9038 20.5118 40.8625 20.8739 41.0363 21.1532C41.2787 21.5417 41.4532 21.9707 41.5537 22.4176C41.6274 22.7402 41.9146 22.9688 42.2454 22.9683H42.7241V23.6766H42.2454C41.9148 23.6777 41.6288 23.9073 41.5565 24.23C41.4547 24.6764 41.277 25.101 41.0335 25.4889C40.8582 25.7689 40.8996 26.1326 41.1331 26.366L41.4707 26.7036L40.9699 27.2044L40.6351 26.8696C40.4017 26.636 40.0378 26.5942 39.758 26.77C39.3694 27.0124 38.9431 27.1869 38.4963 27.2874C38.1726 27.3597 37.9426 27.6474 37.9429 27.9792V28.4578H37.2345V27.9792C37.2338 27.6492 37.0055 27.3637 36.6839 27.2902C36.2374 27.1882 35.8128 27.0106 35.425 26.7673C35.1451 26.592 34.7813 26.6331 34.5479 26.8669L34.2103 27.2044L33.7095 26.7036L34.0443 26.3688C34.2778 26.1355 34.3192 25.7715 34.1439 25.4917C33.9015 25.1031 33.7269 24.6768 33.6265 24.23C33.5539 23.9063 33.2664 23.6765 32.9347 23.6766H32.4533V22.9683H32.932C33.2628 22.9688 33.55 22.7402 33.6237 22.4176C33.7255 21.9711 33.9004 21.5464 34.1439 21.1587C34.3199 20.8795 34.2797 20.5156 34.047 20.2816L33.7095 19.944L34.2103 19.4432L34.5451 19.778C34.7781 20.0102 35.1402 20.0519 35.4194 19.8776C35.808 19.6352 36.2343 19.4606 36.6812 19.3602C37.0048 19.2879 37.2348 19.0001 37.2345 18.6685V18.187ZM23.9727 20.0879C23.7777 20.0879 24.1988 20.0465 23.3888 20.1598C22.3391 20.4393 21.5671 21.428 21.5848 22.5588V23.5742C18.2173 24.5249 15.5833 27.3277 15.5833 30.9093C15.5833 35.3235 19.5155 38.6706 24.0086 38.6706C26.1942 38.6706 27.5863 40.1007 27.5863 41.5814C27.5863 43.0632 26.1957 44.4894 24.0086 44.4894C21.8216 44.4894 20.4338 43.0632 20.4338 41.5814C20.441 40.829 20.1398 40.1722 19.6729 39.7524C19.203 39.3301 18.6014 39.1354 18.0099 39.1354C17.4185 39.1354 16.817 39.3303 16.347 39.7524C15.8779 40.174 15.5765 40.8358 15.5861 41.5924C15.5905 45.2561 18.2769 47.9529 21.5848 48.922V49.9569C21.574 50.7151 21.8758 51.3775 22.3457 51.7996C22.8156 52.2219 23.4173 52.4167 24.0086 52.4167C24.6 52.4167 25.2017 52.2219 25.6715 51.7996C26.1414 51.3775 26.446 50.7151 26.4352 49.9569V48.9193C29.8015 47.9673 32.4367 45.1649 32.4367 41.5841C32.4367 37.1698 28.5017 33.8229 24.0086 33.8229C21.8231 33.8229 20.4338 32.3927 20.4338 30.9121C20.4338 29.4518 21.7891 28.0571 23.9284 28.0179H24.0972C26.2335 28.0604 27.5863 29.4456 27.5863 30.9038C27.579 31.6562 27.8803 32.3131 28.3472 32.7327C28.817 33.1552 29.4186 33.3498 30.0101 33.3498C30.6015 33.3498 31.203 33.1577 31.673 32.7355C32.1424 32.3138 32.4438 31.6527 32.4339 30.8955C32.4311 27.23 29.7442 24.5326 26.4352 23.5632V22.5505C26.4564 21.1909 25.3322 20.0666 23.9727 20.0879ZM37.5887 20.9927C36.3096 20.9927 35.259 22.0433 35.259 23.3224C35.259 24.6015 36.3092 25.6549 37.5887 25.6549C38.8682 25.6549 39.9212 24.6015 39.9212 23.3224C39.9212 22.0433 38.8678 20.9927 37.5887 20.9927ZM23.9948 21.5073H24.0031C24.5748 21.5073 25.0275 21.949 25.0186 22.5228V22.5366V24.0391C25.018 24.37 25.2466 24.6571 25.5692 24.7308C28.6159 25.4159 31.0173 27.74 31.0173 30.8983L31.02 30.9121C31.0257 31.3144 30.9027 31.5232 30.7267 31.6813C30.5507 31.8394 30.2853 31.9331 30.0101 31.9331C29.7349 31.9331 29.4692 31.8396 29.2935 31.6813C29.1177 31.5234 28.997 31.3144 29.0029 30.9121V30.8983C29.0029 28.5735 26.8857 26.6501 24.1248 26.5957C24.1064 26.595 24.0879 26.595 24.0695 26.5957H23.9561C23.9385 26.595 23.921 26.595 23.9035 26.5957C21.1368 26.6467 19.0171 28.5796 19.0171 30.9066C19.0171 33.2626 21.1816 35.234 24.0086 35.234C27.8039 35.234 31.02 38.0097 31.02 41.5786C31.02 44.641 28.6605 47.093 25.5802 47.7406C25.2533 47.81 25.0192 48.0981 25.0186 48.4323V49.9624V49.9762C25.0242 50.3787 24.9011 50.5873 24.7253 50.7454C24.5494 50.9035 24.2837 51 24.0086 51C23.7335 51 23.4706 50.9037 23.2948 50.7454C23.1189 50.5873 22.9958 50.3787 23.0015 49.9762V49.9624V48.4406C23.0016 48.1089 22.7717 47.8215 22.4481 47.7489C19.4013 47.0659 17 44.7398 17 41.5814V41.5648C16.9943 41.1624 17.1173 40.9537 17.2933 40.7956C17.4693 40.6375 17.7347 40.541 18.0099 40.541C18.2851 40.541 18.548 40.6373 18.7238 40.7956C18.8995 40.9535 19.023 41.1624 19.0171 41.5648V41.5814C19.0171 43.9381 21.1829 45.9061 24.0086 45.9061C26.8344 45.9061 29.0029 43.9381 29.0029 41.5814C29.0029 39.2252 26.8356 37.2539 24.0086 37.2539C20.2134 37.2539 17 34.4781 17 30.9093C17 27.8469 19.3595 25.398 22.4398 24.7502C22.7678 24.6807 23.0022 24.391 23.0015 24.0557V22.5477V22.5311C22.9927 21.9658 23.4296 21.5161 23.9948 21.5073ZM37.5887 22.4093C38.0941 22.4093 38.5046 22.817 38.5046 23.3224C38.5046 23.8278 38.0937 24.2383 37.5887 24.2383C37.0837 24.2383 36.6756 23.8278 36.6756 23.3224C36.6756 22.817 37.0833 22.4093 37.5887 22.4093ZM41.5343 29.8745C41.1432 29.8747 40.826 30.1917 40.826 30.5828V31.8501C40.3864 31.9861 39.9614 32.1581 39.5532 32.3703L38.6623 31.4821C38.3856 31.2056 37.9373 31.2056 37.6606 31.4821L35.4748 33.6652C35.1983 33.9419 35.1983 34.3902 35.4748 34.6668L36.3685 35.5605C36.1549 35.9684 35.9798 36.391 35.8428 36.8306H34.5783C34.1871 36.8306 33.87 37.1478 33.87 37.5389V40.6296C33.87 41.0208 34.1871 41.3379 34.5783 41.3379H35.8455C35.9814 41.7775 36.1562 42.1998 36.3685 42.6079L35.4748 43.5016C35.1983 43.7783 35.1983 44.2267 35.4748 44.5033L37.6606 46.6864C37.9373 46.9629 38.3856 46.9629 38.6623 46.6864L39.556 45.7954C39.9637 46.0089 40.3867 46.1841 40.826 46.3211V47.5828C40.826 47.9741 41.1432 48.2912 41.5343 48.2912H44.625C45.0162 48.2912 45.3333 47.9741 45.3333 47.5828V46.3184C45.7729 46.1824 46.1952 46.0078 46.6034 45.7954L47.4943 46.6864C47.7709 46.9629 48.2193 46.9629 48.4959 46.6864L50.6818 44.5033C50.9583 44.2267 50.9583 43.7783 50.6818 43.5016L49.7909 42.6079C50.0043 42.2002 50.1796 41.7773 50.3166 41.3379H51.5783C51.9695 41.3379 52.2866 41.0208 52.2866 40.6296V37.5389C52.2866 37.1478 51.9695 36.8306 51.5783 36.8306H50.3138C50.1777 36.3903 50.0037 35.9666 49.7909 35.5578L50.6818 34.6668C50.9583 34.3902 50.9583 33.9419 50.6818 33.6652L48.4959 31.4821C48.2193 31.2056 47.7709 31.2056 47.4943 31.4821L46.6034 32.373C46.1955 32.1594 45.7729 31.9843 45.3333 31.8473V30.5828C45.3333 30.1917 45.0162 29.8747 44.625 29.8745H41.5343ZM42.2427 31.2912H43.9167V32.3094C43.9161 32.6403 44.1447 32.9275 44.4673 33.0011C45.152 33.1571 45.8066 33.4275 46.4014 33.8008C46.6812 33.9762 47.0451 33.9349 47.2785 33.7012L47.9951 32.9845L49.1794 34.166L48.4655 34.8826C48.231 35.1154 48.1885 35.4794 48.3631 35.7598C48.7349 36.3558 49.0059 37.0085 49.16 37.6938C49.2324 38.0164 49.5183 38.2462 49.849 38.2472H50.87V39.9212H49.8517C49.5219 39.9221 49.2362 40.1503 49.1628 40.4718C49.0067 41.1565 48.7365 41.8112 48.3631 42.4059C48.1871 42.6851 48.2273 43.0489 48.46 43.283L49.1794 44.0024L47.9951 45.1839L47.2812 44.4701C47.0478 44.2364 46.684 44.1946 46.4041 44.3704C45.8082 44.742 45.1553 45.0104 44.4701 45.1645C44.1474 45.2368 43.9177 45.5229 43.9167 45.8535V46.8745H42.2427V45.8563C42.2419 45.5265 42.0136 45.2407 41.6921 45.1673C41.0073 45.0113 40.3528 44.741 39.758 44.3677C39.4787 44.1917 39.115 44.2322 38.8809 44.4645L38.1615 45.1812L36.9772 43.9997L37.6938 43.283C37.9274 43.0496 37.9687 42.6857 37.7935 42.4059C37.4217 41.8099 37.1534 41.1571 36.9993 40.4718C36.9268 40.1483 36.6393 39.9182 36.3076 39.9185H35.2866V38.2445H36.3048C36.6357 38.2449 36.9229 38.0164 36.9966 37.6938C37.1526 37.0092 37.4229 36.3545 37.7962 35.7598C37.9715 35.48 37.9302 35.1161 37.6966 34.8826L36.9772 34.1632L38.1615 32.9818L38.8781 33.6956C39.1111 33.9278 39.4732 33.9695 39.7524 33.7952C40.3484 33.4235 41.004 33.1553 41.6893 33.0011C42.0119 32.9289 42.2416 32.643 42.2427 32.3122V31.2912ZM43.0783 35.5412C41.1345 35.5412 39.5394 37.1389 39.5394 39.0828C39.5394 41.0267 41.134 42.6245 43.0783 42.6245C45.0226 42.6245 46.62 41.0267 46.62 39.0828C46.62 37.1389 45.0221 35.5412 43.0783 35.5412ZM43.0783 36.9578C44.2485 36.9578 45.2033 37.9125 45.2033 39.0828C45.2033 40.2529 44.2479 41.2078 43.0783 41.2078C41.9086 41.2078 40.9561 40.2529 40.9561 39.0828C40.9561 37.9125 41.9081 36.9578 43.0783 36.9578Z" fill="#93C93E"/>
</svg>
