<svg width="59" height="59" viewBox="0 0 59 59" fill="none" xmlns="http://www.w3.org/2000/svg">
<path d="M55.2088 27.7631C55.2018 27.6495 55.1709 27.5387 55.1181 27.4379C55.0653 27.3371 54.9917 27.2487 54.9023 27.1783C54.8129 27.108 54.7096 27.0574 54.5992 27.0298C54.4888 27.0022 54.3738 26.9983 54.2618 27.0183L44.4098 28.7779C44.2234 28.8112 44.0547 28.909 43.9331 29.0542C43.8115 29.1994 43.7449 29.3827 43.7449 29.572C43.7449 32.3753 42.9136 35.1157 41.3562 37.4466C39.7988 39.7774 37.5851 41.5941 34.9952 42.6669C32.4053 43.7397 29.5554 44.0204 26.8059 43.4735C24.0565 42.9266 21.5309 41.5767 19.5487 39.5944C17.5664 37.6122 16.2165 35.0867 15.6696 32.3372C15.1227 29.5877 15.4034 26.7379 16.4762 24.1479C17.549 21.558 19.3657 19.3444 21.6965 17.7869C24.0274 16.2295 26.7678 15.3982 29.5711 15.3982C29.7627 15.3982 29.948 15.33 30.0939 15.2058C30.2398 15.0816 30.3368 14.9095 30.3674 14.7204L31.9843 4.72669C32.0022 4.61554 31.9967 4.50187 31.968 4.393C31.9393 4.28413 31.8882 4.18246 31.8179 4.09454C31.7476 4.00662 31.6596 3.9344 31.5597 3.88251C31.4598 3.83063 31.3501 3.80024 31.2377 3.79329L25.9326 3.46637C25.7235 3.45349 25.5177 3.5224 25.3585 3.65855C25.1994 3.7947 25.0995 3.98741 25.0798 4.19592L24.6181 9.10882C22.5053 9.61023 20.4824 10.434 18.6204 11.5511L14.7913 8.39403C14.6365 8.26654 14.4399 8.20125 14.2396 8.21088C14.0393 8.22051 13.8498 8.30437 13.7081 8.44611L8.44553 13.7084C8.3038 13.8502 8.21996 14.0397 8.21035 14.24C8.20075 14.4402 8.26606 14.6369 8.39356 14.7916L11.5482 18.6188C10.4221 20.4771 9.59759 22.5021 9.10524 24.6184L4.19165 25.0794C3.99121 25.0981 3.80491 25.1908 3.6691 25.3394C3.53328 25.488 3.45768 25.6818 3.45703 25.8831V33.3068C3.45788 33.5079 3.5336 33.7016 3.66942 33.85C3.80524 33.9984 3.99145 34.091 4.19177 34.1096L9.1064 34.5712C9.60778 36.684 10.4315 38.7069 11.5487 40.5688L8.39275 44.399C8.26528 44.5537 8.20001 44.7504 8.20966 44.9507C8.21931 45.1509 8.30319 45.3404 8.44495 45.4822L13.5176 50.555C13.6593 50.6968 13.8488 50.7807 14.0491 50.7903C14.2493 50.8 14.446 50.7347 14.6008 50.6072L18.4306 47.4506C20.2926 48.5676 22.3156 49.391 24.4283 49.8921L24.8906 54.8086C24.9093 55.0089 25.0019 55.1952 25.1504 55.331C25.2989 55.4668 25.4926 55.5424 25.6938 55.5432H33.1173C33.3185 55.5424 33.5123 55.4667 33.6607 55.3309C33.8092 55.1951 33.9018 55.0088 33.9204 54.8085L34.3813 49.8969C36.4979 49.4046 38.5232 48.5799 40.3817 47.4537L44.2092 50.6078C44.364 50.7353 44.5607 50.8005 44.7609 50.7909C44.9612 50.7812 45.1506 50.6973 45.2924 50.5555L50.5544 45.2934C50.6961 45.1516 50.7799 44.9621 50.7895 44.7619C50.7991 44.5616 50.7338 44.365 50.6063 44.2102L47.4501 40.3799C48.5669 38.518 49.3905 36.4952 49.8919 34.3827L54.8047 33.921C55.0132 33.9014 55.2059 33.8014 55.3421 33.6423C55.4783 33.4832 55.5472 33.2773 55.5343 33.0682L55.2088 27.7631ZM49.1564 32.8314C48.9848 32.8475 48.8228 32.9182 48.6942 33.0331C48.5656 33.1479 48.4772 33.301 48.442 33.4698C47.9589 35.7947 47.0566 38.0121 45.7792 40.0138C45.6876 40.1574 45.6438 40.3263 45.6542 40.4964C45.6645 40.6664 45.7285 40.8288 45.8368 40.9603L48.8949 44.6703L44.6691 48.896L40.9586 45.8382C40.8265 45.7293 40.6634 45.6653 40.4926 45.6553C40.3218 45.6453 40.1522 45.6899 40.0085 45.7826C38.015 47.0698 35.7978 47.9719 33.4719 48.4421C33.302 48.4773 33.1478 48.5661 33.0321 48.6955C32.9164 48.8248 32.8452 48.9879 32.8291 49.1607L32.3826 53.9299H26.4279L25.9801 49.1607C25.9639 48.9888 25.8933 48.8266 25.7784 48.6978C25.6635 48.5689 25.5103 48.4802 25.3414 48.4446C23.0164 47.9615 20.7989 47.0591 18.7971 45.7816C18.6535 45.69 18.4846 45.6463 18.3145 45.6566C18.1445 45.667 17.9821 45.7309 17.8506 45.8392L14.1401 48.8969L10.1041 44.8597L13.1618 41.1492C13.2701 41.0177 13.334 40.8553 13.3444 40.6853C13.3547 40.5153 13.311 40.3464 13.2195 40.2027C11.9424 38.2009 11.0403 35.9833 10.5575 33.6583C10.5216 33.4893 10.4326 33.3362 10.3035 33.2213C10.1744 33.1064 10.0119 33.0358 9.83986 33.0197L5.07031 32.5724V26.6175L9.83963 26.17C10.0122 26.1538 10.175 26.0826 10.3041 25.9669C10.4332 25.8512 10.5217 25.6971 10.5565 25.5273C11.0272 23.2014 11.9298 20.9843 13.2174 18.9909C13.3101 18.8471 13.3548 18.6776 13.3449 18.5068C13.335 18.336 13.271 18.1728 13.1623 18.0408L10.1042 14.331L14.3304 10.1049L18.0403 13.1629C18.1718 13.2712 18.3342 13.3352 18.5042 13.3455C18.6743 13.3559 18.8433 13.3121 18.9869 13.2205C20.9886 11.9429 23.2062 11.0404 25.5312 10.5572C25.7001 10.522 25.8532 10.4337 25.9681 10.3051C26.0831 10.1765 26.1538 10.0145 26.1698 9.84275L26.6133 5.12356L30.2499 5.34769L28.8825 13.7993C20.4954 14.1608 13.7843 21.0971 13.7843 29.5716C13.7843 38.2766 20.8664 45.3587 29.5714 45.3587C38.0496 45.3587 44.9883 38.6417 45.3441 30.2495L53.6542 28.7653L53.8762 32.3874L49.1564 32.8314Z" fill="#93C93E"/>
<path d="M30.3438 22.2427C28.9437 23.0766 27.6525 24.0813 26.5 25.2335L20.535 31.1984C19.5762 32.1624 19.0368 33.4661 19.0342 34.8257C19.0316 36.1854 19.5659 37.4911 20.5209 38.4589C20.9954 38.9424 21.5615 39.3264 22.1861 39.5887C22.8107 39.8509 23.4812 39.9861 24.1586 39.9864H24.1694C24.8449 39.9867 25.5138 39.8532 26.1374 39.5936C26.761 39.3339 27.327 38.9532 27.8026 38.4734L33.7777 32.4943C34.9228 31.3482 35.9221 30.0652 36.753 28.6744L37.9663 26.6388C38.2624 26.7789 38.5862 26.8509 38.9138 26.8496H38.9182C39.2097 26.8512 39.4985 26.7949 39.768 26.6839C40.0376 26.573 40.2824 26.4097 40.4883 26.2034L42.2797 24.4136C42.3548 24.3386 42.4143 24.2496 42.4548 24.1516C42.4953 24.0536 42.5161 23.9485 42.5159 23.8425C42.5157 23.7364 42.4946 23.6314 42.4537 23.5335C42.4128 23.4357 42.353 23.3469 42.2776 23.2722L40.5671 21.5742L50.5738 11.5675C50.6202 11.521 50.6608 11.469 50.6947 11.4127L53.7091 6.39842C53.8018 6.24415 53.8403 6.0633 53.8184 5.88466C53.7964 5.70601 53.7154 5.53983 53.5881 5.41256C53.4609 5.28529 53.2947 5.20423 53.1161 5.18229C52.9374 5.16035 52.7566 5.19878 52.6023 5.29147L47.588 8.30601C47.5316 8.33988 47.4796 8.38052 47.4331 8.427L37.4146 18.4455L35.6998 16.743C35.5483 16.5927 35.3435 16.5085 35.1301 16.5089C34.9166 16.5093 34.7121 16.5943 34.5612 16.7452L32.8103 18.4951C32.4858 18.8214 32.2703 19.2402 32.1937 19.6939C32.1171 20.1477 32.183 20.614 32.3825 21.0287L30.3438 22.2427ZM32.637 31.3497L26.6619 37.3327C26.3357 37.6622 25.9475 37.9238 25.5197 38.1023C25.0918 38.2809 24.6328 38.3729 24.1692 38.3731H24.162C23.697 38.3724 23.2368 38.2792 22.8083 38.0988C22.3797 37.9184 21.9914 37.6544 21.666 37.3223C21.0109 36.6586 20.6445 35.7631 20.6464 34.8306C20.6482 33.898 21.0183 33.004 21.676 32.343L27.6408 26.3763C28.6987 25.3182 29.8839 24.3957 31.1692 23.6299L33.444 22.2748L36.7228 25.5779L35.3682 27.8449C34.6055 29.1211 33.6881 30.2983 32.6369 31.3497H32.637ZM48.504 9.63765L50.6579 8.343L49.363 10.4967L39.4219 20.4379L38.5596 19.582L48.504 9.63765ZM33.951 19.636L35.1332 18.454L38.7829 22.0765C38.8033 22.1029 38.8252 22.128 38.8486 22.1518C38.8735 22.1763 38.9 22.1992 38.9279 22.2203L40.5669 23.8471L39.3475 25.0624C39.291 25.1184 39.224 25.1627 39.1503 25.1925C39.0766 25.2224 38.9976 25.2373 38.9181 25.2364H38.9169C38.8372 25.2372 38.758 25.2222 38.6842 25.192C38.6103 25.1619 38.5432 25.1174 38.4868 25.061L33.9494 20.4916C33.8365 20.3777 33.7732 20.2238 33.7735 20.0634C33.7738 19.9031 33.8377 19.7494 33.951 19.636V19.636Z" fill="#93C93E"/>
<path d="M33.2171 26.4348L24.4984 35.1534C24.3472 35.3047 24.2622 35.5099 24.2622 35.7238C24.2622 35.9378 24.3472 36.143 24.4984 36.2942C24.6497 36.4455 24.8549 36.5305 25.0689 36.5305C25.2828 36.5305 25.488 36.4455 25.6393 36.2942L34.3579 27.5755C34.5092 27.4242 34.5942 27.219 34.5942 27.0051C34.5942 26.7911 34.5092 26.5859 34.3579 26.4347C34.2066 26.2834 34.0014 26.1984 33.7875 26.1984C33.5735 26.1984 33.3684 26.2834 33.2171 26.4347V26.4348ZM32.5651 24.6425C32.4902 24.5676 32.4012 24.5082 32.3034 24.4677C32.2055 24.4271 32.1006 24.4062 31.9947 24.4062C31.8887 24.4062 31.7838 24.4271 31.686 24.4677C31.5881 24.5082 31.4992 24.5676 31.4243 24.6425L22.7055 33.3612C22.5542 33.5125 22.4692 33.7176 22.4692 33.9316C22.4692 34.1455 22.5542 34.3507 22.7055 34.502C22.8568 34.6533 23.062 34.7383 23.2759 34.7383C23.4899 34.7383 23.695 34.6533 23.8463 34.502L32.5651 25.7832C32.7163 25.632 32.8013 25.4268 32.8013 25.2129C32.8013 24.999 32.7163 24.7938 32.5651 24.6425V24.6425Z" fill="#93C93E"/>
</svg>
